<?xml version="1.0" encoding="UTF-8" standalone="no"?>
<!DOCTYPE svg PUBLIC "-//W3C//DTD SVG 1.1//EN" "http://www.w3.org/Graphics/SVG/1.1/DTD/svg11.dtd">
<svg width="100%" height="100%" viewBox="1290 200 1512 3400" version="1.1" xmlns="http://www.w3.org/2000/svg" xmlns:xlink="http://www.w3.org/1999/xlink" xml:space="preserve" xmlns:serif="http://www.serif.com/" style="fill-rule:evenodd;clip-rule:evenodd;stroke-linecap:round;stroke-linejoin:round;stroke-miterlimit:1.5;">
    <g transform="matrix(1.5,0,0,1.5,1675.39,97.7593)">
        <path d="M-254.262,1358.36L-254.262,337.494C-252.683,337.385 572.1,336.827 629.738,337.494C721.684,338.558 759.322,403.122 747.771,466.252C734.268,540.054 637.595,627.635 629.738,634.827C554.913,703.326 -254.262,1358.36 -254.262,1358.36Z" style="fill:none;stroke:rgb(201,171,21);stroke-width:1px;"/>
    </g>
    <g transform="matrix(1.5,0,0,1.5,1659.07,116.8)">
        <path d="M640.619,-77.867L640.592,2322.13" style="fill:none;stroke:rgb(201,171,21);stroke-width:1px;"/>
    </g>
    <g transform="matrix(1.5,0,0,1.5,1659.07,116.8)">
        <path d="M-600.104,2300.34C-600.104,2300.34 560.46,735.985 640.619,623.065C715.122,518.113 745.691,379.486 640.619,324.8C541.64,273.286 -193.695,-78.832 -193.695,-78.832" style="fill:none;stroke:rgb(201,171,21);stroke-width:1px;"/>
    </g>
</svg>
